<svg width="25" height="25" viewBox="0 0 25 25" fill="none" xmlns="http://www.w3.org/2000/svg">
<path d="M19.5842 21.091H6.08417C5.88526 21.091 5.69449 21.012 5.55384 20.8713C5.41319 20.7307 5.33417 20.5399 5.33417 20.341V3.841C5.33417 3.64209 5.41319 3.45133 5.55384 3.31067C5.69449 3.17002 5.88526 3.091 6.08417 3.091H15.0842L20.3342 8.341V20.341C20.3342 20.5399 20.2552 20.7307 20.1145 20.8713C19.9738 21.012 19.7831 21.091 19.5842 21.091Z" stroke="#A37746" stroke-width="2" stroke-linecap="round" stroke-linejoin="round"/>
<path d="M15.0842 3.091V8.341H20.3342" stroke="#A37746" stroke-width="2" stroke-linecap="round" stroke-linejoin="round"/>
<path d="M14.3154 15.8222L15.8154 17.3222" stroke="#A37746" stroke-width="2" stroke-linecap="round" stroke-linejoin="round"/>
<path d="M12.4592 16.591C13.9089 16.591 15.0842 15.4158 15.0842 13.966C15.0842 12.5163 13.9089 11.341 12.4592 11.341C11.0094 11.341 9.83417 12.5163 9.83417 13.966C9.83417 15.4158 11.0094 16.591 12.4592 16.591Z" stroke="#A37746" stroke-width="2" stroke-linecap="round" stroke-linejoin="round"/>
</svg>
